# xmcd
#
# Track frame offsets:
#	150
#	11105
#	23326
#	40231
#	50243
#	60958
#	78982
#	90984
#	101717
#	120063
#	132237
#	151672
#	162446
#	174573
#
# Disc length: 2483 seconds
#
# Revision: 1
# Processed by: cddbd v1.5.2PL0 Copyright (c) Steve Scherf et al.
# Submitted via: audiograbber 1.83.01
#
DISCID=9b09b10e
DTITLE=High Plains Tradition - Where The Woods Are Cool And Still
DYEAR=1900
DGENRE=Bluegrass
TTITLE0=Because of You
TTITLE1=It's Just Me
TTITLE2=Where the Woods Are Cool and Still
TTITLE3=Brand New Mandolin
TTITLE4=Clean Getaway
TTITLE5=Flowers From Emily
TTITLE6=Trying to Find My Own Way
TTITLE7=I Knew
TTITLE8=Sommervile Mine
TTITLE9=Soldiers Joy
TTITLE10=Show Me The Way
TTITLE11=Blue Yodel #4
TTITLE12=Just How Long Have You Been Gone
TTITLE13=BONUS TRACK
EXTD=
EXTT0=
EXTT1=
EXTT2=
EXTT3=
EXTT4=
EXTT5=
EXTT6=
EXTT7=
EXTT8=
EXTT9=
EXTT10=
EXTT11=
EXTT12=
EXTT13=
PLAYORDER=
